<svg version="1.1" xmlns="http://www.w3.org/2000/svg" viewBox="0 0 825.122059826961 785" width="825.122059826961" height="785">
  <!-- svg-source:excalidraw -->
  
  <defs>
    <style class="style-fonts">
      @font-face {
        font-family: "Virgil";
        src: url("https://excalidraw.com/Virgil.woff2");
      }
      @font-face {
        font-family: "Cascadia";
        src: url("https://excalidraw.com/Cascadia.woff2");
      }
      @font-face {
        font-family: "Assistant";
        src: url("https://excalidraw.com/Assistant-Regular.woff2");
      }
    </style>
    
  </defs>
  <rect x="0" y="0" width="825.122059826961" height="785" fill="#ffffff"></rect><g stroke-linecap="round"><g transform="translate(213.12205982696105 11) rotate(0 215.5 265)"><path d="M0 0 C147.51 181.4, 294.91 364.1, 431 530 M0 0 C94.08 116.94, 187.78 232.05, 431 530" stroke="#1e1e1e" stroke-width="1" fill="none"></path></g></g><mask></mask><g stroke-linecap="round"><g transform="translate(213.12205982696105 10) rotate(0 -0.5 310)"><path d="M0 0 C0.78 176.03, 0.3 351.41, -1 620 M0 0 C-1.74 125.54, -2.11 251.85, -1 620" stroke="#1e1e1e" stroke-width="4" fill="none"></path></g></g><mask></mask><g stroke-linecap="round"><g transform="translate(644.122059826961 541) rotate(0 -215 0.5)"><path d="M0 0 C-147.53 -0.64, -294.85 0.36, -430 1 M0 0 C-151.5 -0.09, -303.48 -0.09, -430 1" stroke="#1e1e1e" stroke-width="2" fill="none"></path></g></g><mask></mask><g stroke-linecap="round"><g transform="translate(112.12205982696105 183.6379983174308) rotate(0 41.5 0.18100084128460026)"><path d="M0 0 C24.13 -1.28, 50.94 0.67, 83 0.36 M0 0 C22.16 0.82, 42.77 1.07, 83 0.36" stroke="#1e1e1e" stroke-width="1" fill="none"></path></g><g transform="translate(112.12205982696105 183.6379983174308) rotate(0 41.5 0.18100084128460026)"><path d="M59.62 9.2 C65.89 4.94, 74.83 4.13, 83 0.36 M59.62 9.2 C66.15 7.17, 71.06 5, 83 0.36" stroke="#1e1e1e" stroke-width="1" fill="none"></path></g><g transform="translate(112.12205982696105 183.6379983174308) rotate(0 41.5 0.18100084128460026)"><path d="M59.4 -7.9 C65.72 -7.03, 74.72 -2.71, 83 0.36 M59.4 -7.9 C65.87 -5.43, 70.84 -3.1, 83 0.36" stroke="#1e1e1e" stroke-width="1" fill="none"></path></g></g><mask></mask><g transform="translate(49.12205982696105 170) rotate(0 25.40833282470703 12.5)"><text x="0" y="0" font-family="Virgil, Segoe UI Emoji" font-size="20px" fill="#1e1e1e" text-anchor="start" style="white-space: pre;" direction="ltr" dominant-baseline="text-before-edge">Mast</text></g><g transform="translate(635.7892728146217 578.8334503502406) rotate(0 24.683332443237305 12.5)"><text x="0" y="0" font-family="Virgil, Segoe UI Emoji" font-size="20px" fill="#1e1e1e" text-anchor="start" style="white-space: pre;" direction="ltr" dominant-baseline="text-before-edge">Boom</text></g><g stroke-linecap="round"><g transform="translate(626.6776192670573 587.9623038514243) rotate(0 -23.649554813305485 -17.590963850443188)"><path d="M0 0 C-16.06 -11.9, -33.73 -25.15, -47.3 -35.18 M0 0 C-15.07 -12, -30.69 -23.03, -47.3 -35.18" stroke="#1e1e1e" stroke-width="1" fill="none"></path></g><g transform="translate(626.6776192670573 587.9623038514243) rotate(0 -23.649554813305485 -17.590963850443188)"><path d="M-23.27 -28.28 C-30.98 -29.95, -40.23 -32.96, -47.3 -35.18 M-23.27 -28.28 C-30.82 -30.98, -38.87 -32.81, -47.3 -35.18" stroke="#1e1e1e" stroke-width="1" fill="none"></path></g><g transform="translate(626.6776192670573 587.9623038514243) rotate(0 -23.649554813305485 -17.590963850443188)"><path d="M-33.33 -14.45 C-37.36 -21.14, -42.97 -29.15, -47.3 -35.18 M-33.33 -14.45 C-37.58 -21.61, -42.36 -27.94, -47.3 -35.18" stroke="#1e1e1e" stroke-width="1" fill="none"></path></g></g><mask></mask><g transform="translate(477.12205982696105 175) rotate(0 59.00833511352539 12.5)"><text x="0" y="0" font-family="Virgil, Segoe UI Emoji" font-size="20px" fill="#1e1e1e" text-anchor="start" style="white-space: pre;" direction="ltr" dominant-baseline="text-before-edge">Topping Lift</text></g><g stroke-linecap="round"><g transform="translate(473.72524375187106 206.1205915197806) rotate(0 -20.801591962455007 19.939704240109705)"><path d="M0 0 C-12.94 12.99, -28.44 26.6, -41.6 39.88 M0 0 C-13.1 12.99, -26.01 24.76, -41.6 39.88" stroke="#1e1e1e" stroke-width="1" fill="none"></path></g><g transform="translate(473.72524375187106 206.1205915197806) rotate(0 -20.801591962455007 19.939704240109705)"><path d="M-30.56 17.45 C-33.25 24.67, -38.45 32.4, -41.6 39.88 M-30.56 17.45 C-34.21 24.93, -37.58 31.26, -41.6 39.88" stroke="#1e1e1e" stroke-width="1" fill="none"></path></g><g transform="translate(473.72524375187106 206.1205915197806) rotate(0 -20.801591962455007 19.939704240109705)"><path d="M-18.72 29.8 C-25.44 32.82, -34.62 36.38, -41.6 39.88 M-18.72 29.8 C-26.13 33.45, -33.2 35.92, -41.6 39.88" stroke="#1e1e1e" stroke-width="1" fill="none"></path></g></g><mask></mask><g stroke-linecap="round"><g transform="translate(38.12205982696105 632) rotate(0 353 0)"><path d="M0 0 C193.43 0, 386.86 0, 706 0 M0 0 C278.37 0, 556.74 0, 706 0" stroke="#1e1e1e" stroke-width="2" fill="none"></path></g></g><mask></mask><g transform="translate(60.12205982696105 536) rotate(0 23.149999618530273 12.5)"><text x="0" y="0" font-family="Virgil, Segoe UI Emoji" font-size="20px" fill="#1e1e1e" text-anchor="start" style="white-space: pre;" direction="ltr" dominant-baseline="text-before-edge">Deck</text></g><g stroke-linecap="round"><g transform="translate(78.12205982696105 570) rotate(0 0 27)"><path d="M0 0 C0 18.09, 0 36.18, 0 54 M0 0 C0 18.31, 0 36.61, 0 54" stroke="#1e1e1e" stroke-width="2" fill="none"></path></g><g transform="translate(78.12205982696105 570) rotate(0 0 27)"><path d="M-8.55 30.51 C-5.69 38.38, -2.82 46.25, 0 54 M-8.55 30.51 C-5.65 38.47, -2.75 46.44, 0 54" stroke="#1e1e1e" stroke-width="2" fill="none"></path></g><g transform="translate(78.12205982696105 570) rotate(0 0 27)"><path d="M8.55 30.51 C5.69 38.38, 2.82 46.25, 0 54 M8.55 30.51 C5.65 38.47, 2.75 46.44, 0 54" stroke="#1e1e1e" stroke-width="2" fill="none"></path></g></g><mask></mask><g transform="translate(12.122059826961049 759) rotate(0 401.5 -3.5)" stroke="none"><path fill="#1971c2" d="M -0.70,-1.41 Q -0.70,-1.41 1.61,-2.53 3.93,-3.65 5.90,-4.21 7.88,-4.78 10.97,-5.53 14.07,-6.28 16.78,-7.15 19.48,-8.02 24.23,-8.71 28.97,-9.39 32.70,-9.67 36.44,-9.95 40.67,-9.78 44.91,-9.60 48.16,-9.23 51.41,-8.86 55.13,-8.12 58.84,-7.38 61.29,-6.78 63.74,-6.17 66.26,-5.32 68.77,-4.48 70.35,-4.23 71.92,-3.98 73.65,-3.26 75.38,-2.54 77.73,-1.64 80.07,-0.75 81.76,-0.57 83.44,-0.40 84.76,-0.06 86.08,0.26 88.01,1.11 89.94,1.95 91.58,2.56 93.22,3.16 95.51,3.77 97.80,4.37 100.25,4.96 102.69,5.55 105.63,5.80 108.58,6.06 110.91,5.91 113.25,5.76 116.27,5.42 119.30,5.08 121.32,4.40 123.34,3.73 125.99,2.85 128.64,1.98 130.29,1.28 131.94,0.58 133.42,-0.27 134.89,-1.13 135.73,-1.82 136.56,-2.52 137.56,-3.20 138.56,-3.88 140.20,-4.48 141.85,-5.07 143.15,-4.86 144.46,-4.65 145.53,-4.25 146.61,-3.85 147.86,-2.98 149.11,-2.10 150.73,-0.08 152.35,1.93 153.53,3.25 154.72,4.58 156.31,6.35 157.89,8.12 158.97,9.48 160.05,10.85 161.14,11.45 162.22,12.06 163.58,12.71 164.93,13.35 166.59,12.57 168.25,11.79 169.81,10.62 171.37,9.45 174.11,7.23 176.85,5.02 178.93,3.49 181.01,1.97 183.28,-0.04 185.55,-2.05 187.15,-3.28 188.75,-4.51 190.36,-5.42 191.97,-6.32 192.80,-6.99 193.63,-7.66 195.52,-8.10 197.41,-8.53 198.94,-8.43 200.47,-8.33 202.59,-7.55 204.70,-6.78 206.39,-6.21 208.09,-5.65 211.51,-5.08 214.93,-4.51 217.83,-4.23 220.72,-3.96 225.25,-4.67 229.78,-5.39 233.76,-6.25 237.74,-7.11 243.15,-8.61 248.56,-10.11 252.59,-11.32 256.62,-12.52 259.70,-13.87 262.78,-15.21 266.75,-16.67 270.72,-18.13 273.57,-19.03 276.42,-19.94 279.34,-20.90 282.26,-21.85 284.12,-22.33 285.99,-22.80 287.57,-23.32 289.15,-23.84 290.17,-24.15 291.19,-24.47 292.28,-24.66 293.36,-24.85 295.37,-24.71 297.39,-24.57 298.84,-23.81 300.30,-23.04 301.26,-22.43 302.21,-21.83 303.25,-20.95 304.29,-20.06 305.91,-18.59 307.52,-17.13 309.09,-16.65 310.66,-16.16 311.93,-15.66 313.20,-15.16 315.06,-14.88 316.91,-14.59 318.94,-14.39 320.97,-14.18 324.57,-14.61 328.17,-15.04 329.96,-15.02 331.76,-15.00 333.16,-14.15 334.57,-13.29 334.90,-12.41 335.23,-11.53 335.20,-11.26 335.17,-10.99 335.08,-10.74 334.99,-10.49 334.84,-10.26 334.69,-10.04 334.49,-9.86 334.29,-9.68 334.05,-9.55 333.81,-9.42 333.55,-9.35 333.29,-9.29 333.02,-9.28 332.75,-9.28 332.49,-9.34 332.23,-9.40 331.99,-9.53 331.75,-9.65 331.54,-9.82 331.34,-10.00 331.18,-10.22 331.03,-10.44 330.93,-10.69 330.83,-10.94 330.79,-11.21 330.76,-11.48 331.71,-12.64 332.66,-13.81 334.64,-13.98 336.61,-14.14 338.37,-13.87 340.12,-13.60 343.01,-13.09 345.91,-12.57 348.61,-12.02 351.32,-11.46 355.95,-10.33 360.58,-9.20 364.28,-8.12 367.98,-7.03 372.97,-5.70 377.96,-4.37 380.96,-3.51 383.96,-2.64 387.24,-1.69 390.53,-0.74 392.79,-0.03 395.06,0.66 396.66,1.17 398.27,1.68 399.40,1.79 400.53,1.91 401.78,2.25 403.02,2.59 404.86,2.37 406.71,2.15 407.92,1.99 409.14,1.83 411.29,1.64 413.43,1.45 415.16,1.07 416.88,0.69 419.95,0.02 423.03,-0.63 425.19,-1.17 427.34,-1.71 430.84,-2.77 434.33,-3.84 437.00,-4.58 439.68,-5.31 443.24,-5.64 446.80,-5.96 449.14,-6.08 451.49,-6.20 454.58,-5.96 457.67,-5.72 459.62,-5.36 461.56,-5.00 464.12,-4.23 466.69,-3.46 468.62,-2.86 470.55,-2.27 472.88,-2.31 475.21,-2.36 477.36,-2.64 479.50,-2.92 482.90,-4.15 486.30,-5.39 488.87,-6.75 491.44,-8.11 495.19,-9.87 498.93,-11.62 501.66,-12.94 504.38,-14.25 507.57,-15.68 510.76,-17.10 512.68,-17.99 514.60,-18.88 516.95,-19.58 519.30,-20.28 521.31,-20.36 523.32,-20.45 524.60,-20.24 525.89,-20.04 527.70,-18.97 529.52,-17.90 532.02,-16.87 534.51,-15.84 537.09,-16.03 539.67,-16.22 540.97,-16.71 542.27,-17.20 544.53,-18.14 546.80,-19.08 548.70,-19.81 550.61,-20.53 552.86,-21.37 555.11,-22.20 557.97,-22.59 560.83,-22.97 562.88,-23.13 564.93,-23.30 566.81,-23.12 568.69,-22.95 571.31,-21.90 573.94,-20.86 575.90,-19.81 577.86,-18.77 580.58,-17.80 583.30,-16.82 585.35,-16.10 587.40,-15.37 590.26,-14.49 593.12,-13.61 595.13,-13.25 597.14,-12.89 599.68,-12.73 602.21,-12.58 604.45,-12.50 606.69,-12.43 609.08,-12.40 611.46,-12.37 613.24,-12.68 615.01,-13.00 617.89,-13.11 620.78,-13.22 622.85,-13.27 624.92,-13.33 628.04,-13.62 631.17,-13.91 633.62,-14.32 636.08,-14.72 639.75,-15.18 643.43,-15.64 646.17,-15.84 648.90,-16.04 652.33,-16.40 655.76,-16.77 657.81,-16.95 659.87,-17.12 661.33,-17.30 662.79,-17.47 664.58,-17.54 666.38,-17.61 667.66,-17.41 668.94,-17.21 670.30,-16.85 671.66,-16.50 673.91,-16.09 676.17,-15.67 677.29,-15.25 678.42,-14.82 679.66,-14.39 680.90,-13.95 682.30,-13.47 683.69,-12.98 685.14,-12.48 686.59,-11.98 687.88,-11.48 689.16,-10.97 691.16,-9.71 693.15,-8.46 694.74,-7.72 696.33,-6.98 699.19,-6.04 702.06,-5.10 704.72,-4.37 707.38,-3.64 711.38,-2.74 715.37,-1.83 718.44,-1.44 721.51,-1.05 725.21,-0.28 728.90,0.48 731.61,1.10 734.32,1.72 737.23,2.57 740.14,3.43 741.99,4.05 743.83,4.66 745.47,5.16 747.11,5.66 748.27,5.77 749.43,5.88 750.86,5.66 752.29,5.43 753.40,5.04 754.50,4.64 755.63,3.77 756.75,2.89 757.54,2.15 758.33,1.42 760.04,-0.30 761.76,-2.02 765.02,-1.76 768.29,-1.51 772.07,-0.69 775.84,0.11 779.47,1.07 783.09,2.02 787.46,3.02 791.83,4.02 795.12,4.74 798.42,5.47 800.43,5.89 802.44,6.30 802.70,6.41 802.96,6.53 803.17,6.72 803.38,6.91 803.51,7.16 803.65,7.41 803.70,7.69 803.75,7.97 803.71,8.25 803.67,8.53 803.54,8.78 803.41,9.04 803.20,9.23 803.00,9.43 802.74,9.56 802.49,9.68 802.21,9.71 801.93,9.75 801.65,9.69 801.37,9.63 801.12,9.49 800.88,9.35 800.69,9.14 800.50,8.92 800.40,8.66 800.29,8.40 800.27,8.11 800.25,7.83 800.32,7.56 800.39,7.28 800.55,7.04 800.70,6.81 800.93,6.63 801.15,6.46 801.42,6.36 801.69,6.27 801.97,6.26 802.25,6.26 802.52,6.35 802.79,6.43 803.02,6.60 803.25,6.77 803.41,7.00 803.58,7.24 803.66,7.51 803.74,7.78 803.73,8.06 803.71,8.35 803.61,8.61 803.51,8.88 803.33,9.10 803.15,9.32 802.91,9.47 802.67,9.62 802.39,9.68 802.12,9.75 801.83,9.72 801.55,9.69 801.55,9.69 801.55,9.69 799.67,9.09 797.79,8.48 794.47,7.83 791.15,7.18 786.71,6.28 782.27,5.39 778.71,4.60 775.15,3.81 771.49,3.22 767.83,2.64 765.31,2.65 762.80,2.67 761.92,3.69 761.04,4.70 760.05,5.41 759.07,6.11 757.37,7.27 755.66,8.43 754.19,8.77 752.71,9.11 750.76,9.26 748.82,9.40 747.45,9.04 746.08,8.68 744.46,8.06 742.85,7.43 741.11,6.77 739.36,6.11 736.53,5.31 733.70,4.50 731.01,3.93 728.33,3.35 724.74,2.66 721.16,1.97 717.93,1.63 714.70,1.30 710.63,0.49 706.57,-0.32 703.79,-0.92 701.01,-1.53 697.84,-2.37 694.67,-3.21 692.88,-3.96 691.09,-4.71 689.19,-5.60 687.29,-6.49 686.18,-6.98 685.07,-7.48 683.60,-7.97 682.12,-8.45 680.69,-8.95 679.25,-9.44 677.90,-9.96 676.55,-10.47 674.77,-11.30 673.00,-12.13 671.74,-12.41 670.48,-12.68 668.44,-13.49 666.40,-14.29 664.67,-14.30 662.94,-14.32 661.51,-14.36 660.08,-14.40 658.06,-14.26 656.04,-14.12 652.57,-13.74 649.10,-13.37 646.44,-13.17 643.77,-12.97 640.15,-12.50 636.53,-12.03 633.98,-11.60 631.44,-11.17 628.21,-10.84 624.99,-10.52 622.94,-10.47 620.90,-10.43 618.16,-10.30 615.42,-10.18 613.43,-9.94 611.44,-9.71 609.02,-9.73 606.61,-9.76 604.33,-9.82 602.05,-9.88 599.36,-10.04 596.67,-10.20 594.50,-10.59 592.32,-10.97 589.41,-11.84 586.49,-12.71 584.42,-13.41 582.35,-14.10 579.42,-15.11 576.50,-16.12 574.65,-17.04 572.80,-17.96 570.52,-18.82 568.24,-19.69 566.70,-19.95 565.16,-20.22 563.21,-20.06 561.26,-19.90 558.78,-19.53 556.30,-19.16 554.11,-18.22 551.91,-17.27 550.12,-16.52 548.32,-15.76 545.94,-14.58 543.55,-13.39 542.03,-12.93 540.51,-12.47 538.13,-11.97 535.76,-11.48 534.31,-11.93 532.86,-12.38 531.34,-13.12 529.81,-13.87 528.78,-14.44 527.74,-15.00 525.51,-16.28 523.29,-17.55 521.65,-17.65 520.02,-17.74 517.86,-17.11 515.71,-16.47 513.78,-15.58 511.85,-14.68 508.69,-13.26 505.54,-11.85 502.81,-10.52 500.07,-9.20 496.39,-7.46 492.71,-5.72 489.97,-4.27 487.23,-2.82 483.56,-1.50 479.89,-0.18 477.57,0.13 475.25,0.45 472.49,0.47 469.73,0.49 467.81,-0.11 465.88,-0.72 463.42,-1.42 460.96,-2.12 459.21,-2.54 457.46,-2.95 454.55,-3.17 451.65,-3.38 449.36,-3.22 447.07,-3.07 443.79,-2.74 440.50,-2.42 437.90,-1.63 435.29,-0.84 431.77,0.33 428.25,1.51 426.07,2.19 423.90,2.87 420.85,3.71 417.79,4.56 415.91,5.03 414.04,5.50 410.73,5.99 407.43,6.48 405.79,6.65 404.16,6.82 402.00,6.09 399.83,5.36 398.51,4.98 397.18,4.60 395.72,3.95 394.25,3.31 392.00,2.65 389.75,1.98 386.47,1.07 383.18,0.16 380.19,-0.64 377.21,-1.45 372.17,-2.72 367.13,-3.98 363.48,-4.95 359.83,-5.92 355.27,-6.90 350.71,-7.88 348.04,-8.24 345.37,-8.60 342.36,-8.88 339.36,-9.16 338.06,-9.42 336.77,-9.67 336.00,-10.60 335.23,-11.53 335.20,-11.26 335.17,-10.99 335.08,-10.74 334.99,-10.49 334.84,-10.26 334.69,-10.04 334.49,-9.86 334.29,-9.68 334.05,-9.55 333.81,-9.42 333.55,-9.35 333.29,-9.29 333.02,-9.28 332.75,-9.28 332.49,-9.34 332.23,-9.40 331.99,-9.53 331.75,-9.65 331.54,-9.82 331.34,-10.00 331.18,-10.22 331.03,-10.44 330.93,-10.69 330.83,-10.94 330.79,-11.21 330.76,-11.48 331.13,-11.32 331.50,-11.16 330.09,-11.26 328.69,-11.35 324.75,-10.71 320.82,-10.06 318.66,-10.03 316.49,-9.99 313.89,-10.11 311.29,-10.23 310.20,-10.68 309.11,-11.13 307.42,-11.64 305.74,-12.16 304.83,-12.76 303.91,-13.36 302.45,-14.86 300.98,-16.36 299.51,-17.67 298.04,-18.99 297.02,-19.61 296.01,-20.23 294.85,-20.56 293.69,-20.89 291.85,-20.84 290.01,-20.79 288.32,-20.39 286.62,-19.98 284.86,-19.64 283.09,-19.31 280.16,-18.34 277.24,-17.38 274.45,-16.47 271.66,-15.57 267.77,-14.13 263.89,-12.69 260.66,-11.26 257.43,-9.84 253.39,-8.59 249.34,-7.35 243.86,-5.78 238.39,-4.22 234.33,-3.27 230.28,-2.33 225.39,-1.52 220.50,-0.70 217.46,-0.87 214.43,-1.04 210.66,-1.52 206.89,-2.01 205.19,-2.57 203.49,-3.13 200.75,-3.90 198.01,-4.67 196.80,-4.58 195.59,-4.49 194.56,-3.91 193.52,-3.34 192.09,-2.66 190.66,-1.99 189.16,-0.87 187.66,0.25 185.35,2.42 183.04,4.60 181.10,6.17 179.17,7.74 176.52,10.11 173.86,12.47 172.21,13.96 170.55,15.46 167.18,16.64 163.82,17.83 161.89,16.63 159.96,15.44 158.47,14.37 156.98,13.29 156.06,12.05 155.14,10.81 153.37,9.16 151.60,7.51 150.32,6.19 149.03,4.88 147.52,3.39 146.02,1.91 144.56,0.92 143.10,-0.06 141.81,-0.25 140.52,-0.44 139.55,0.00 138.59,0.45 137.50,1.06 136.41,1.66 134.72,2.52 133.03,3.38 131.28,4.00 129.53,4.63 126.90,5.53 124.26,6.43 121.96,7.22 119.66,8.00 116.58,8.40 113.49,8.81 110.92,9.04 108.35,9.28 105.17,9.10 101.99,8.92 99.49,8.47 96.99,8.03 94.41,7.55 91.83,7.07 90.13,6.49 88.43,5.91 85.70,4.97 82.96,4.02 80.57,3.34 78.18,2.66 77.10,1.97 76.02,1.28 75.02,0.84 74.02,0.39 72.64,-0.32 71.27,-1.05 69.60,-1.51 67.93,-1.96 65.51,-2.77 63.10,-3.58 60.71,-4.17 58.32,-4.76 54.72,-5.47 51.11,-6.18 47.95,-6.53 44.80,-6.88 40.72,-7.04 36.65,-7.19 33.01,-6.90 29.37,-6.61 24.88,-5.95 20.38,-5.28 17.59,-4.34 14.81,-3.39 11.74,-2.58 8.67,-1.77 6.97,-1.35 5.26,-0.94 2.98,0.23 0.70,1.41 0.52,1.48 0.34,1.54 0.15,1.56 -0.03,1.58 -0.22,1.55 -0.40,1.52 -0.58,1.45 -0.76,1.38 -0.91,1.27 -1.07,1.16 -1.19,1.01 -1.32,0.87 -1.40,0.70 -1.49,0.53 -1.53,0.34 -1.57,0.15 -1.57,-0.03 -1.56,-0.22 -1.51,-0.40 -1.46,-0.59 -1.37,-0.75 -1.28,-0.92 -1.15,-1.06 -1.02,-1.20 -0.86,-1.31 -0.70,-1.41 -0.70,-1.41 L -0.70,-1.41 Z"></path></g><g transform="translate(298.12205982696105 661) rotate(0 41.66666793823242 12.5)"><text x="0" y="0" font-family="Virgil, Segoe UI Emoji" font-size="20px" fill="#1971c2" text-anchor="start" style="white-space: pre;" direction="ltr" dominant-baseline="text-before-edge">The Sea</text></g><g stroke-linecap="round"><g transform="translate(369.6178564924702 697) rotate(0 41.75210166724543 26.5)"><path d="M0 0 C32.71 20.89, 63.94 39.97, 83.5 53 M0 0 C21.37 14.58, 43.23 28.78, 83.5 53" stroke="#1971c2" stroke-width="1" fill="none"></path></g><g transform="translate(369.6178564924702 697) rotate(0 41.75210166724543 26.5)"><path d="M59 48.06 C69.47 50.8, 78.66 51.92, 83.5 53 M59 48.06 C65.1 50.04, 71.35 51.53, 83.5 53" stroke="#1971c2" stroke-width="1" fill="none"></path></g><g transform="translate(369.6178564924702 697) rotate(0 41.75210166724543 26.5)"><path d="M67.9 33.47 C75.11 41.63, 80.97 48.2, 83.5 53 M67.9 33.47 C71.55 39.32, 75.45 44.67, 83.5 53" stroke="#1971c2" stroke-width="1" fill="none"></path></g></g><mask></mask><g stroke-linecap="round"><g transform="translate(285.97596952499384 226.6948407487012) rotate(0 -36.4269548490164 -101.3474203743506)"><path d="M0 0 C-19.55 -52.83, -39.46 -102.96, -72.85 -202.69 M0 0 C-15.56 -47.63, -32.77 -92.65, -72.85 -202.69" stroke="#e03131" stroke-width="1" fill="none"></path></g></g><mask></mask><g stroke-linecap="round"><g transform="translate(213.12205982696105 21) rotate(0 -11 303.5)"><path d="M0.73 -0.83 C-2.83 100.04, -18.83 505.24, -22.52 606.45 M-0.34 1.34 C-4.01 102.88, -20.15 506.67, -23.74 607.7" stroke="#e03131" stroke-width="1" fill="none"></path></g></g><mask></mask><g stroke-linecap="round"><g transform="translate(351.12205982696105 77) rotate(0 -38 46.5)"><path d="M-0.45 0 C-13.28 15.45, -63.46 77.45, -75.91 92.79 M1.52 -1.05 C-11.56 14.58, -63.99 78.57, -76.8 94.22" stroke="#e03131" stroke-width="1" fill="none"></path></g><g transform="translate(351.12205982696105 77) rotate(0 -38 46.5)"><path d="M-68.53 70.63 C-71.73 79.95, -75.3 90.48, -76.8 94.22 M-68.53 70.63 C-70.86 76.84, -71.7 80.59, -76.8 94.22" stroke="#e03131" stroke-width="1" fill="none"></path></g><g transform="translate(351.12205982696105 77) rotate(0 -38 46.5)"><path d="M-55.3 81.47 C-63.67 86.52, -72.39 92.83, -76.8 94.22 M-55.3 81.47 C-60.6 85.31, -64.37 86.65, -76.8 94.22" stroke="#e03131" stroke-width="1" fill="none"></path></g></g><mask></mask><g transform="translate(367.12205982696105 63) rotate(0 62.34166717529297 12.5)"><text x="0" y="0" font-family="Virgil, Segoe UI Emoji" font-size="20px" fill="#e03131" text-anchor="start" style="white-space: pre;" direction="ltr" dominant-baseline="text-before-edge">Main Halyard</text></g><g stroke-linecap="round"><g transform="translate(285.79999612644156 228.4201652148853) rotate(0 -31.338968149740253 149.78991739255736)"><path d="M0 0 C-10.45 49.93, -52.23 249.65, -62.68 299.58 M0 0 C-10.45 49.93, -52.23 249.65, -62.68 299.58" stroke="#2f9e44" stroke-width="1" fill="none"></path></g></g><mask></mask><g stroke-linecap="round"><g transform="translate(287.426618457362 226.24419181633294) rotate(0 171.34772068479953 152.87790409183353)"><path d="M0 0 C57.12 50.96, 285.58 254.8, 342.7 305.76 M0 0 C57.12 50.96, 285.58 254.8, 342.7 305.76" stroke="#1971c2" stroke-width="1" fill="none"></path></g></g><mask></mask><g stroke-linecap="round"><g transform="translate(223.27239088456326 527.8218956911002) rotate(0 203.33578231674892 1.8905215444992791)"><path d="M0 0 C67.78 0.63, 338.89 3.15, 406.67 3.78 M0 0 C67.78 0.63, 338.89 3.15, 406.67 3.78" stroke="#1971c2" stroke-width="1" fill="none"></path></g></g><mask></mask><g stroke-linecap="round"><g transform="translate(144.91035071024453 240.15428996641504) rotate(0 62.37790409183356 9.718415136724985)"><path d="M0 0 C20.79 3.24, 103.96 16.2, 124.76 19.44 M0 0 C20.79 3.24, 103.96 16.2, 124.76 19.44" stroke="#2f9e44" stroke-width="1" fill="none"></path></g><g transform="translate(144.91035071024453 240.15428996641504) rotate(0 62.37790409183356 9.718415136724985)"><path d="M100.23 24.27 C109.6 22.42, 118.97 20.58, 124.76 19.44 M100.23 24.27 C105.81 23.17, 111.4 22.07, 124.76 19.44" stroke="#2f9e44" stroke-width="1" fill="none"></path></g><g transform="translate(144.91035071024453 240.15428996641504) rotate(0 62.37790409183356 9.718415136724985)"><path d="M102.86 7.37 C111.23 11.98, 119.59 16.59, 124.76 19.44 M102.86 7.37 C107.84 10.12, 112.83 12.87, 124.76 19.44" stroke="#2f9e44" stroke-width="1" fill="none"></path></g></g><mask></mask><g transform="translate(10 222.59957246447533) rotate(0 62.34166717529297 25)"><text x="0" y="0" font-family="Virgil, Segoe UI Emoji" font-size="20px" fill="#2f9e44" text-anchor="start" style="white-space: pre;" direction="ltr" dominant-baseline="text-before-edge">Main Haylard</text><text x="0" y="25" font-family="Virgil, Segoe UI Emoji" font-size="20px" fill="#2f9e44" text-anchor="start" style="white-space: pre;" direction="ltr" dominant-baseline="text-before-edge">  Recovery</text></g><g stroke-linecap="round" transform="translate(313.1856268649583 245.08463091618262) rotate(0 5.077271263288765 7.253244661841109)"><path d="M10.15 7.25 C10.15 7.67, 10.13 8.1, 10.08 8.51 C10.03 8.93, 9.95 9.34, 9.85 9.73 C9.75 10.13, 9.62 10.52, 9.47 10.88 C9.33 11.24, 9.16 11.59, 8.97 11.92 C8.78 12.24, 8.57 12.54, 8.34 12.81 C8.12 13.08, 7.87 13.32, 7.62 13.53 C7.36 13.74, 7.09 13.93, 6.81 14.07 C6.54 14.21, 6.25 14.32, 5.96 14.4 C5.67 14.47, 5.37 14.51, 5.08 14.51 C4.78 14.51, 4.49 14.47, 4.2 14.4 C3.91 14.32, 3.62 14.21, 3.34 14.07 C3.06 13.93, 2.79 13.74, 2.54 13.53 C2.28 13.32, 2.04 13.08, 1.81 12.81 C1.59 12.54, 1.38 12.24, 1.19 11.92 C1 11.59, 0.83 11.24, 0.68 10.88 C0.53 10.52, 0.41 10.13, 0.31 9.73 C0.21 9.34, 0.13 8.93, 0.08 8.51 C0.03 8.1, 0 7.67, 0 7.25 C0 6.83, 0.03 6.41, 0.08 5.99 C0.13 5.58, 0.21 5.17, 0.31 4.77 C0.41 4.38, 0.53 3.99, 0.68 3.63 C0.83 3.26, 1 2.91, 1.19 2.59 C1.38 2.27, 1.59 1.97, 1.81 1.7 C2.04 1.43, 2.28 1.18, 2.54 0.97 C2.79 0.76, 3.06 0.58, 3.34 0.44 C3.62 0.29, 3.91 0.18, 4.2 0.11 C4.49 0.04, 4.78 0, 5.08 0 C5.37 0, 5.67 0.04, 5.96 0.11 C6.25 0.18, 6.54 0.29, 6.81 0.44 C7.09 0.58, 7.36 0.76, 7.62 0.97 C7.87 1.18, 8.12 1.43, 8.34 1.7 C8.57 1.97, 8.78 2.27, 8.97 2.59 C9.16 2.91, 9.33 3.26, 9.47 3.63 C9.62 3.99, 9.75 4.38, 9.85 4.77 C9.95 5.17, 10.03 5.58, 10.08 5.99 C10.13 6.41, 10.14 7.04, 10.15 7.25 C10.17 7.46, 10.17 7.04, 10.15 7.25" stroke="#1971c2" stroke-width="1" fill="none"></path></g><g stroke-linecap="round" transform="translate(246.45577597602028 520.7079280661449) rotate(0 5.077271263288765 7.253244661841109)"><path d="M10.15 7.25 C10.15 7.67, 10.13 8.1, 10.08 8.51 C10.03 8.93, 9.95 9.34, 9.85 9.73 C9.75 10.13, 9.62 10.52, 9.47 10.88 C9.33 11.24, 9.16 11.59, 8.97 11.92 C8.78 12.24, 8.57 12.54, 8.34 12.81 C8.12 13.08, 7.87 13.32, 7.62 13.53 C7.36 13.74, 7.09 13.93, 6.81 14.07 C6.54 14.21, 6.25 14.32, 5.96 14.4 C5.67 14.47, 5.37 14.51, 5.08 14.51 C4.78 14.51, 4.49 14.47, 4.2 14.4 C3.91 14.32, 3.62 14.21, 3.34 14.07 C3.06 13.93, 2.79 13.74, 2.54 13.53 C2.28 13.32, 2.04 13.08, 1.81 12.81 C1.59 12.54, 1.38 12.24, 1.19 11.92 C1 11.59, 0.83 11.24, 0.68 10.88 C0.53 10.52, 0.41 10.13, 0.31 9.73 C0.21 9.34, 0.13 8.93, 0.08 8.51 C0.03 8.1, 0 7.67, 0 7.25 C0 6.83, 0.03 6.41, 0.08 5.99 C0.13 5.58, 0.21 5.17, 0.31 4.77 C0.41 4.38, 0.53 3.99, 0.68 3.63 C0.83 3.26, 1 2.91, 1.19 2.59 C1.38 2.27, 1.59 1.97, 1.81 1.7 C2.04 1.43, 2.28 1.18, 2.54 0.97 C2.79 0.76, 3.06 0.58, 3.34 0.44 C3.62 0.29, 3.91 0.18, 4.2 0.11 C4.49 0.04, 4.78 0, 5.08 0 C5.37 0, 5.67 0.04, 5.96 0.11 C6.25 0.18, 6.54 0.29, 6.81 0.44 C7.09 0.58, 7.36 0.76, 7.62 0.97 C7.87 1.18, 8.12 1.43, 8.34 1.7 C8.57 1.97, 8.78 2.27, 8.97 2.59 C9.16 2.91, 9.33 3.26, 9.47 3.63 C9.62 3.99, 9.75 4.38, 9.85 4.77 C9.95 5.17, 10.03 5.58, 10.08 5.99 C10.13 6.41, 10.14 7.04, 10.15 7.25 C10.17 7.46, 10.17 7.04, 10.15 7.25" stroke="#1971c2" stroke-width="1" fill="none"></path></g><g stroke-linecap="round" transform="translate(455.34922223704416 519.9826035999608) rotate(0 5.077271263288765 7.253244661841109)"><path d="M10.15 7.25 C10.15 7.67, 10.13 8.1, 10.08 8.51 C10.03 8.93, 9.95 9.34, 9.85 9.73 C9.75 10.13, 9.62 10.52, 9.47 10.88 C9.33 11.24, 9.16 11.59, 8.97 11.92 C8.78 12.24, 8.57 12.54, 8.34 12.81 C8.12 13.08, 7.87 13.32, 7.62 13.53 C7.36 13.74, 7.09 13.93, 6.81 14.07 C6.54 14.21, 6.25 14.32, 5.96 14.4 C5.67 14.47, 5.37 14.51, 5.08 14.51 C4.78 14.51, 4.49 14.47, 4.2 14.4 C3.91 14.32, 3.62 14.21, 3.34 14.07 C3.06 13.93, 2.79 13.74, 2.54 13.53 C2.28 13.32, 2.04 13.08, 1.81 12.81 C1.59 12.54, 1.38 12.24, 1.19 11.92 C1 11.59, 0.83 11.24, 0.68 10.88 C0.53 10.52, 0.41 10.13, 0.31 9.73 C0.21 9.34, 0.13 8.93, 0.08 8.51 C0.03 8.1, 0 7.67, 0 7.25 C0 6.83, 0.03 6.41, 0.08 5.99 C0.13 5.58, 0.21 5.17, 0.31 4.77 C0.41 4.38, 0.53 3.99, 0.68 3.63 C0.83 3.26, 1 2.91, 1.19 2.59 C1.38 2.27, 1.59 1.97, 1.81 1.7 C2.04 1.43, 2.28 1.18, 2.54 0.97 C2.79 0.76, 3.06 0.58, 3.34 0.44 C3.62 0.29, 3.91 0.18, 4.2 0.11 C4.49 0.04, 4.78 0, 5.08 0 C5.37 0, 5.67 0.04, 5.96 0.11 C6.25 0.18, 6.54 0.29, 6.81 0.44 C7.09 0.58, 7.36 0.76, 7.62 0.97 C7.87 1.18, 8.12 1.43, 8.34 1.7 C8.57 1.97, 8.78 2.27, 8.97 2.59 C9.16 2.91, 9.33 3.26, 9.47 3.63 C9.62 3.99, 9.75 4.38, 9.85 4.77 C9.95 5.17, 10.03 5.58, 10.08 5.99 C10.13 6.41, 10.14 7.04, 10.15 7.25 C10.17 7.46, 10.17 7.04, 10.15 7.25" stroke="#1971c2" stroke-width="1" fill="none"></path></g><g stroke-linecap="round" transform="translate(595.3368442105773 522.8839014646971) rotate(0 5.077271263288708 7.253244661841109)"><path d="M10.15 7.25 C10.15 7.67, 10.13 8.1, 10.08 8.51 C10.03 8.93, 9.95 9.34, 9.85 9.73 C9.75 10.13, 9.62 10.52, 9.47 10.88 C9.33 11.24, 9.16 11.59, 8.97 11.92 C8.78 12.24, 8.57 12.54, 8.34 12.81 C8.12 13.08, 7.87 13.32, 7.62 13.53 C7.36 13.74, 7.09 13.93, 6.81 14.07 C6.54 14.21, 6.25 14.32, 5.96 14.4 C5.67 14.47, 5.37 14.51, 5.08 14.51 C4.78 14.51, 4.49 14.47, 4.2 14.4 C3.91 14.32, 3.62 14.21, 3.34 14.07 C3.06 13.93, 2.79 13.74, 2.54 13.53 C2.28 13.32, 2.04 13.08, 1.81 12.81 C1.59 12.54, 1.38 12.24, 1.19 11.92 C1 11.59, 0.83 11.24, 0.68 10.88 C0.53 10.52, 0.41 10.13, 0.31 9.73 C0.21 9.34, 0.13 8.93, 0.08 8.51 C0.03 8.1, 0 7.67, 0 7.25 C0 6.83, 0.03 6.41, 0.08 5.99 C0.13 5.58, 0.21 5.17, 0.31 4.77 C0.41 4.38, 0.53 3.99, 0.68 3.63 C0.83 3.26, 1 2.91, 1.19 2.59 C1.38 2.27, 1.59 1.97, 1.81 1.7 C2.04 1.43, 2.28 1.18, 2.54 0.97 C2.79 0.76, 3.06 0.58, 3.34 0.44 C3.62 0.29, 3.91 0.18, 4.2 0.11 C4.49 0.04, 4.78 0, 5.08 0 C5.37 0, 5.67 0.04, 5.96 0.11 C6.25 0.18, 6.54 0.29, 6.81 0.44 C7.09 0.58, 7.36 0.76, 7.62 0.97 C7.87 1.18, 8.12 1.43, 8.34 1.7 C8.57 1.97, 8.78 2.27, 8.97 2.59 C9.16 2.91, 9.33 3.26, 9.47 3.63 C9.62 3.99, 9.75 4.38, 9.85 4.77 C9.95 5.17, 10.03 5.58, 10.08 5.99 C10.13 6.41, 10.14 7.04, 10.15 7.25 C10.17 7.46, 10.17 7.04, 10.15 7.25" stroke="#1971c2" stroke-width="1" fill="none"></path></g><g stroke-linecap="round" transform="translate(405.3018340703404 521.4332525323289) rotate(0 5.077271263288765 7.253244661841109)"><path d="M10.15 7.25 C10.15 7.67, 10.13 8.1, 10.08 8.51 C10.03 8.93, 9.95 9.34, 9.85 9.73 C9.75 10.13, 9.62 10.52, 9.47 10.88 C9.33 11.24, 9.16 11.59, 8.97 11.92 C8.78 12.24, 8.57 12.54, 8.34 12.81 C8.12 13.08, 7.87 13.32, 7.62 13.53 C7.36 13.74, 7.09 13.93, 6.81 14.07 C6.54 14.21, 6.25 14.32, 5.96 14.4 C5.67 14.47, 5.37 14.51, 5.08 14.51 C4.78 14.51, 4.49 14.47, 4.2 14.4 C3.91 14.32, 3.62 14.21, 3.34 14.07 C3.06 13.93, 2.79 13.74, 2.54 13.53 C2.28 13.32, 2.04 13.08, 1.81 12.81 C1.59 12.54, 1.38 12.24, 1.19 11.92 C1 11.59, 0.83 11.24, 0.68 10.88 C0.53 10.52, 0.41 10.13, 0.31 9.73 C0.21 9.34, 0.13 8.93, 0.08 8.51 C0.03 8.1, 0 7.67, 0 7.25 C0 6.83, 0.03 6.41, 0.08 5.99 C0.13 5.58, 0.21 5.17, 0.31 4.77 C0.41 4.38, 0.53 3.99, 0.68 3.63 C0.83 3.26, 1 2.91, 1.19 2.59 C1.38 2.27, 1.59 1.97, 1.81 1.7 C2.04 1.43, 2.28 1.18, 2.54 0.97 C2.79 0.76, 3.06 0.58, 3.34 0.44 C3.62 0.29, 3.91 0.18, 4.2 0.11 C4.49 0.04, 4.78 0, 5.08 0 C5.37 0, 5.67 0.04, 5.96 0.11 C6.25 0.18, 6.54 0.29, 6.81 0.44 C7.09 0.58, 7.36 0.76, 7.62 0.97 C7.87 1.18, 8.12 1.43, 8.34 1.7 C8.57 1.97, 8.78 2.27, 8.97 2.59 C9.16 2.91, 9.33 3.26, 9.47 3.63 C9.62 3.99, 9.75 4.38, 9.85 4.77 C9.95 5.17, 10.03 5.58, 10.08 5.99 C10.13 6.41, 10.14 7.04, 10.15 7.25 C10.17 7.46, 10.17 7.04, 10.15 7.25" stroke="#1971c2" stroke-width="1" fill="none"></path></g><g stroke-linecap="round" transform="translate(303.0310843383809 521.4332525323289) rotate(0 5.077271263288765 7.253244661841109)"><path d="M10.15 7.25 C10.15 7.67, 10.13 8.1, 10.08 8.51 C10.03 8.93, 9.95 9.34, 9.85 9.73 C9.75 10.13, 9.62 10.52, 9.47 10.88 C9.33 11.24, 9.16 11.59, 8.97 11.92 C8.78 12.24, 8.57 12.54, 8.34 12.81 C8.12 13.08, 7.87 13.32, 7.62 13.53 C7.36 13.74, 7.09 13.93, 6.81 14.07 C6.54 14.21, 6.25 14.32, 5.96 14.4 C5.67 14.47, 5.37 14.51, 5.08 14.51 C4.78 14.51, 4.49 14.47, 4.2 14.4 C3.91 14.32, 3.62 14.21, 3.34 14.07 C3.06 13.93, 2.79 13.74, 2.54 13.53 C2.28 13.32, 2.04 13.08, 1.81 12.81 C1.59 12.54, 1.38 12.24, 1.19 11.92 C1 11.59, 0.83 11.24, 0.68 10.88 C0.53 10.52, 0.41 10.13, 0.31 9.73 C0.21 9.34, 0.13 8.93, 0.08 8.51 C0.03 8.1, 0 7.67, 0 7.25 C0 6.83, 0.03 6.41, 0.08 5.99 C0.13 5.58, 0.21 5.17, 0.31 4.77 C0.41 4.38, 0.53 3.99, 0.68 3.63 C0.83 3.26, 1 2.91, 1.19 2.59 C1.38 2.27, 1.59 1.97, 1.81 1.7 C2.04 1.43, 2.28 1.18, 2.54 0.97 C2.79 0.76, 3.06 0.58, 3.34 0.44 C3.62 0.29, 3.91 0.18, 4.2 0.11 C4.49 0.04, 4.78 0, 5.08 0 C5.37 0, 5.67 0.04, 5.96 0.11 C6.25 0.18, 6.54 0.29, 6.81 0.44 C7.09 0.58, 7.36 0.76, 7.62 0.97 C7.87 1.18, 8.12 1.43, 8.34 1.7 C8.57 1.97, 8.78 2.27, 8.97 2.59 C9.16 2.91, 9.33 3.26, 9.47 3.63 C9.62 3.99, 9.75 4.38, 9.85 4.77 C9.95 5.17, 10.03 5.58, 10.08 5.99 C10.13 6.41, 10.14 7.04, 10.15 7.25 C10.17 7.46, 10.17 7.04, 10.15 7.25" stroke="#1971c2" stroke-width="1" fill="none"></path></g><g stroke-linecap="round" transform="translate(350.90249910653233 521.4332525323289) rotate(0 5.077271263288765 7.253244661841109)"><path d="M10.15 7.25 C10.15 7.67, 10.13 8.1, 10.08 8.51 C10.03 8.93, 9.95 9.34, 9.85 9.73 C9.75 10.13, 9.62 10.52, 9.47 10.88 C9.33 11.24, 9.16 11.59, 8.97 11.92 C8.78 12.24, 8.57 12.54, 8.34 12.81 C8.12 13.08, 7.87 13.32, 7.62 13.53 C7.36 13.74, 7.09 13.93, 6.81 14.07 C6.54 14.21, 6.25 14.32, 5.96 14.4 C5.67 14.47, 5.37 14.51, 5.08 14.51 C4.78 14.51, 4.49 14.47, 4.2 14.4 C3.91 14.32, 3.62 14.21, 3.34 14.07 C3.06 13.93, 2.79 13.74, 2.54 13.53 C2.28 13.32, 2.04 13.08, 1.81 12.81 C1.59 12.54, 1.38 12.24, 1.19 11.92 C1 11.59, 0.83 11.24, 0.68 10.88 C0.53 10.52, 0.41 10.13, 0.31 9.73 C0.21 9.34, 0.13 8.93, 0.08 8.51 C0.03 8.1, 0 7.67, 0 7.25 C0 6.83, 0.03 6.41, 0.08 5.99 C0.13 5.58, 0.21 5.17, 0.31 4.77 C0.41 4.38, 0.53 3.99, 0.68 3.63 C0.83 3.26, 1 2.91, 1.19 2.59 C1.38 2.27, 1.59 1.97, 1.81 1.7 C2.04 1.43, 2.28 1.18, 2.54 0.97 C2.79 0.76, 3.06 0.58, 3.34 0.44 C3.62 0.29, 3.91 0.18, 4.2 0.11 C4.49 0.04, 4.78 0, 5.08 0 C5.37 0, 5.67 0.04, 5.96 0.11 C6.25 0.18, 6.54 0.29, 6.81 0.44 C7.09 0.58, 7.36 0.76, 7.62 0.97 C7.87 1.18, 8.12 1.43, 8.34 1.7 C8.57 1.97, 8.78 2.27, 8.97 2.59 C9.16 2.91, 9.33 3.26, 9.47 3.63 C9.62 3.99, 9.75 4.38, 9.85 4.77 C9.95 5.17, 10.03 5.58, 10.08 5.99 C10.13 6.41, 10.14 7.04, 10.15 7.25 C10.17 7.46, 10.17 7.04, 10.15 7.25" stroke="#1971c2" stroke-width="1" fill="none"></path></g><g stroke-linecap="round" transform="translate(503.9459614713794 522.8839014646971) rotate(0 5.077271263288708 7.253244661841109)"><path d="M10.15 7.25 C10.15 7.67, 10.13 8.1, 10.08 8.51 C10.03 8.93, 9.95 9.34, 9.85 9.73 C9.75 10.13, 9.62 10.52, 9.47 10.88 C9.33 11.24, 9.16 11.59, 8.97 11.92 C8.78 12.24, 8.57 12.54, 8.34 12.81 C8.12 13.08, 7.87 13.32, 7.62 13.53 C7.36 13.74, 7.09 13.93, 6.81 14.07 C6.54 14.21, 6.25 14.32, 5.96 14.4 C5.67 14.47, 5.37 14.51, 5.08 14.51 C4.78 14.51, 4.49 14.47, 4.2 14.4 C3.91 14.32, 3.62 14.21, 3.34 14.07 C3.06 13.93, 2.79 13.74, 2.54 13.53 C2.28 13.32, 2.04 13.08, 1.81 12.81 C1.59 12.54, 1.38 12.24, 1.19 11.92 C1 11.59, 0.83 11.24, 0.68 10.88 C0.53 10.52, 0.41 10.13, 0.31 9.73 C0.21 9.34, 0.13 8.93, 0.08 8.51 C0.03 8.1, 0 7.67, 0 7.25 C0 6.83, 0.03 6.41, 0.08 5.99 C0.13 5.58, 0.21 5.17, 0.31 4.77 C0.41 4.38, 0.53 3.99, 0.68 3.63 C0.83 3.26, 1 2.91, 1.19 2.59 C1.38 2.27, 1.59 1.97, 1.81 1.7 C2.04 1.43, 2.28 1.18, 2.54 0.97 C2.79 0.76, 3.06 0.58, 3.34 0.44 C3.62 0.29, 3.91 0.18, 4.2 0.11 C4.49 0.04, 4.78 0, 5.08 0 C5.37 0, 5.67 0.04, 5.96 0.11 C6.25 0.18, 6.54 0.29, 6.81 0.44 C7.09 0.58, 7.36 0.76, 7.62 0.97 C7.87 1.18, 8.12 1.43, 8.34 1.7 C8.57 1.97, 8.78 2.27, 8.97 2.59 C9.16 2.91, 9.33 3.26, 9.47 3.63 C9.62 3.99, 9.75 4.38, 9.85 4.77 C9.95 5.17, 10.03 5.58, 10.08 5.99 C10.13 6.41, 10.14 7.04, 10.15 7.25 C10.17 7.46, 10.17 7.04, 10.15 7.25" stroke="#1971c2" stroke-width="1" fill="none"></path></g><g stroke-linecap="round" transform="translate(546.7401049762423 522.1585769985131) rotate(0 5.077271263288708 7.253244661841109)"><path d="M10.15 7.25 C10.15 7.67, 10.13 8.1, 10.08 8.51 C10.03 8.93, 9.95 9.34, 9.85 9.73 C9.75 10.13, 9.62 10.52, 9.47 10.88 C9.33 11.24, 9.16 11.59, 8.97 11.92 C8.78 12.24, 8.57 12.54, 8.34 12.81 C8.12 13.08, 7.87 13.32, 7.62 13.53 C7.36 13.74, 7.09 13.93, 6.81 14.07 C6.54 14.21, 6.25 14.32, 5.96 14.4 C5.67 14.47, 5.37 14.51, 5.08 14.51 C4.78 14.51, 4.49 14.47, 4.2 14.4 C3.91 14.32, 3.62 14.21, 3.34 14.07 C3.06 13.93, 2.79 13.74, 2.54 13.53 C2.28 13.32, 2.04 13.08, 1.81 12.81 C1.59 12.54, 1.38 12.24, 1.19 11.92 C1 11.59, 0.83 11.24, 0.68 10.88 C0.53 10.52, 0.41 10.13, 0.31 9.73 C0.21 9.34, 0.13 8.93, 0.08 8.51 C0.03 8.1, 0 7.67, 0 7.25 C0 6.83, 0.03 6.41, 0.08 5.99 C0.13 5.58, 0.21 5.17, 0.31 4.77 C0.41 4.38, 0.53 3.99, 0.68 3.63 C0.83 3.26, 1 2.91, 1.19 2.59 C1.38 2.27, 1.59 1.97, 1.81 1.7 C2.04 1.43, 2.28 1.18, 2.54 0.97 C2.79 0.76, 3.06 0.58, 3.34 0.44 C3.62 0.29, 3.91 0.18, 4.2 0.11 C4.49 0.04, 4.78 0, 5.08 0 C5.37 0, 5.67 0.04, 5.96 0.11 C6.25 0.18, 6.54 0.29, 6.81 0.44 C7.09 0.58, 7.36 0.76, 7.62 0.97 C7.87 1.18, 8.12 1.43, 8.34 1.7 C8.57 1.97, 8.78 2.27, 8.97 2.59 C9.16 2.91, 9.33 3.26, 9.47 3.63 C9.62 3.99, 9.75 4.38, 9.85 4.77 C9.95 5.17, 10.03 5.58, 10.08 5.99 C10.13 6.41, 10.14 7.04, 10.15 7.25 C10.17 7.46, 10.17 7.04, 10.15 7.25" stroke="#1971c2" stroke-width="1" fill="none"></path></g><g stroke-linecap="round" transform="translate(587.3582750825524 487.34300262167585) rotate(0 5.077271263288708 7.253244661841109)"><path d="M10.15 7.25 C10.15 7.67, 10.13 8.1, 10.08 8.51 C10.03 8.93, 9.95 9.34, 9.85 9.73 C9.75 10.13, 9.62 10.52, 9.47 10.88 C9.33 11.24, 9.16 11.59, 8.97 11.92 C8.78 12.24, 8.57 12.54, 8.34 12.81 C8.12 13.08, 7.87 13.32, 7.62 13.53 C7.36 13.74, 7.09 13.93, 6.81 14.07 C6.54 14.21, 6.25 14.32, 5.96 14.4 C5.67 14.47, 5.37 14.51, 5.08 14.51 C4.78 14.51, 4.49 14.47, 4.2 14.4 C3.91 14.32, 3.62 14.21, 3.34 14.07 C3.06 13.93, 2.79 13.74, 2.54 13.53 C2.28 13.32, 2.04 13.08, 1.81 12.81 C1.59 12.54, 1.38 12.24, 1.19 11.92 C1 11.59, 0.83 11.24, 0.68 10.88 C0.53 10.52, 0.41 10.13, 0.31 9.73 C0.21 9.34, 0.13 8.93, 0.08 8.51 C0.03 8.1, 0 7.67, 0 7.25 C0 6.83, 0.03 6.41, 0.08 5.99 C0.13 5.58, 0.21 5.17, 0.31 4.77 C0.41 4.38, 0.53 3.99, 0.68 3.63 C0.83 3.26, 1 2.91, 1.19 2.59 C1.38 2.27, 1.59 1.97, 1.81 1.7 C2.04 1.43, 2.28 1.18, 2.54 0.97 C2.79 0.76, 3.06 0.58, 3.34 0.44 C3.62 0.29, 3.91 0.18, 4.2 0.11 C4.49 0.04, 4.78 0, 5.08 0 C5.37 0, 5.67 0.04, 5.96 0.11 C6.25 0.18, 6.54 0.29, 6.81 0.44 C7.09 0.58, 7.36 0.76, 7.62 0.97 C7.87 1.18, 8.12 1.43, 8.34 1.7 C8.57 1.97, 8.78 2.27, 8.97 2.59 C9.16 2.91, 9.33 3.26, 9.47 3.63 C9.62 3.99, 9.75 4.38, 9.85 4.77 C9.95 5.17, 10.03 5.58, 10.08 5.99 C10.13 6.41, 10.14 7.04, 10.15 7.25 C10.17 7.46, 10.17 7.04, 10.15 7.25" stroke="#1971c2" stroke-width="1" fill="none"></path></g><g stroke-linecap="round" transform="translate(469.8557115607264 386.52290182208435) rotate(0 5.077271263288765 7.253244661841109)"><path d="M10.15 7.25 C10.15 7.67, 10.13 8.1, 10.08 8.51 C10.03 8.93, 9.95 9.34, 9.85 9.73 C9.75 10.13, 9.62 10.52, 9.47 10.88 C9.33 11.24, 9.16 11.59, 8.97 11.92 C8.78 12.24, 8.57 12.54, 8.34 12.81 C8.12 13.08, 7.87 13.32, 7.62 13.53 C7.36 13.74, 7.09 13.93, 6.81 14.07 C6.54 14.21, 6.25 14.32, 5.96 14.4 C5.67 14.47, 5.37 14.51, 5.08 14.51 C4.78 14.51, 4.49 14.47, 4.2 14.4 C3.91 14.32, 3.62 14.21, 3.34 14.07 C3.06 13.93, 2.79 13.74, 2.54 13.53 C2.28 13.32, 2.04 13.08, 1.81 12.81 C1.59 12.54, 1.38 12.24, 1.19 11.92 C1 11.59, 0.83 11.24, 0.68 10.88 C0.53 10.52, 0.41 10.13, 0.31 9.73 C0.21 9.34, 0.13 8.93, 0.08 8.51 C0.03 8.1, 0 7.67, 0 7.25 C0 6.83, 0.03 6.41, 0.08 5.99 C0.13 5.58, 0.21 5.17, 0.31 4.77 C0.41 4.38, 0.53 3.99, 0.68 3.63 C0.83 3.26, 1 2.91, 1.19 2.59 C1.38 2.27, 1.59 1.97, 1.81 1.7 C2.04 1.43, 2.28 1.18, 2.54 0.97 C2.79 0.76, 3.06 0.58, 3.34 0.44 C3.62 0.29, 3.91 0.18, 4.2 0.11 C4.49 0.04, 4.78 0, 5.08 0 C5.37 0, 5.67 0.04, 5.96 0.11 C6.25 0.18, 6.54 0.29, 6.81 0.44 C7.09 0.58, 7.36 0.76, 7.62 0.97 C7.87 1.18, 8.12 1.43, 8.34 1.7 C8.57 1.97, 8.78 2.27, 8.97 2.59 C9.16 2.91, 9.33 3.26, 9.47 3.63 C9.62 3.99, 9.75 4.38, 9.85 4.77 C9.95 5.17, 10.03 5.58, 10.08 5.99 C10.13 6.41, 10.14 7.04, 10.15 7.25 C10.17 7.46, 10.17 7.04, 10.15 7.25" stroke="#1971c2" stroke-width="1" fill="none"></path></g><g stroke-linecap="round" transform="translate(430.6881903867845 351.7073274452471) rotate(0 5.077271263288765 7.253244661841109)"><path d="M10.15 7.25 C10.15 7.67, 10.13 8.1, 10.08 8.51 C10.03 8.93, 9.95 9.34, 9.85 9.73 C9.75 10.13, 9.62 10.52, 9.47 10.88 C9.33 11.24, 9.16 11.59, 8.97 11.92 C8.78 12.24, 8.57 12.54, 8.34 12.81 C8.12 13.08, 7.87 13.32, 7.62 13.53 C7.36 13.74, 7.09 13.93, 6.81 14.07 C6.54 14.21, 6.25 14.32, 5.96 14.4 C5.67 14.47, 5.37 14.51, 5.08 14.51 C4.78 14.51, 4.49 14.47, 4.2 14.4 C3.91 14.32, 3.62 14.21, 3.34 14.07 C3.06 13.93, 2.79 13.74, 2.54 13.53 C2.28 13.32, 2.04 13.08, 1.81 12.81 C1.59 12.54, 1.38 12.24, 1.19 11.92 C1 11.59, 0.83 11.24, 0.68 10.88 C0.53 10.52, 0.41 10.13, 0.31 9.73 C0.21 9.34, 0.13 8.93, 0.08 8.51 C0.03 8.1, 0 7.67, 0 7.25 C0 6.83, 0.03 6.41, 0.08 5.99 C0.13 5.58, 0.21 5.17, 0.31 4.77 C0.41 4.38, 0.53 3.99, 0.68 3.63 C0.83 3.26, 1 2.91, 1.19 2.59 C1.38 2.27, 1.59 1.97, 1.81 1.7 C2.04 1.43, 2.28 1.18, 2.54 0.97 C2.79 0.76, 3.06 0.58, 3.34 0.44 C3.62 0.29, 3.91 0.18, 4.2 0.11 C4.49 0.04, 4.78 0, 5.08 0 C5.37 0, 5.67 0.04, 5.96 0.11 C6.25 0.18, 6.54 0.29, 6.81 0.44 C7.09 0.58, 7.36 0.76, 7.62 0.97 C7.87 1.18, 8.12 1.43, 8.34 1.7 C8.57 1.97, 8.78 2.27, 8.97 2.59 C9.16 2.91, 9.33 3.26, 9.47 3.63 C9.62 3.99, 9.75 4.38, 9.85 4.77 C9.95 5.17, 10.03 5.58, 10.08 5.99 C10.13 6.41, 10.14 7.04, 10.15 7.25 C10.17 7.46, 10.17 7.04, 10.15 7.25" stroke="#1971c2" stroke-width="1" fill="none"></path></g><g stroke-linecap="round" transform="translate(382.8167756186331 308.91318394038444) rotate(0 5.077271263288765 7.253244661841109)"><path d="M10.15 7.25 C10.15 7.67, 10.13 8.1, 10.08 8.51 C10.03 8.93, 9.95 9.34, 9.85 9.73 C9.75 10.13, 9.62 10.52, 9.47 10.88 C9.33 11.24, 9.16 11.59, 8.97 11.92 C8.78 12.24, 8.57 12.54, 8.34 12.81 C8.12 13.08, 7.87 13.32, 7.62 13.53 C7.36 13.74, 7.09 13.93, 6.81 14.07 C6.54 14.21, 6.25 14.32, 5.96 14.4 C5.67 14.47, 5.37 14.51, 5.08 14.51 C4.78 14.51, 4.49 14.47, 4.2 14.4 C3.91 14.32, 3.62 14.21, 3.34 14.07 C3.06 13.93, 2.79 13.74, 2.54 13.53 C2.28 13.32, 2.04 13.08, 1.81 12.81 C1.59 12.54, 1.38 12.24, 1.19 11.92 C1 11.59, 0.83 11.24, 0.68 10.88 C0.53 10.52, 0.41 10.13, 0.31 9.73 C0.21 9.34, 0.13 8.93, 0.08 8.51 C0.03 8.1, 0 7.67, 0 7.25 C0 6.83, 0.03 6.41, 0.08 5.99 C0.13 5.58, 0.21 5.17, 0.31 4.77 C0.41 4.38, 0.53 3.99, 0.68 3.63 C0.83 3.26, 1 2.91, 1.19 2.59 C1.38 2.27, 1.59 1.97, 1.81 1.7 C2.04 1.43, 2.28 1.18, 2.54 0.97 C2.79 0.76, 3.06 0.58, 3.34 0.44 C3.62 0.29, 3.91 0.18, 4.2 0.11 C4.49 0.04, 4.78 0, 5.08 0 C5.37 0, 5.67 0.04, 5.96 0.11 C6.25 0.18, 6.54 0.29, 6.81 0.44 C7.09 0.58, 7.36 0.76, 7.62 0.97 C7.87 1.18, 8.12 1.43, 8.34 1.7 C8.57 1.97, 8.78 2.27, 8.97 2.59 C9.16 2.91, 9.33 3.26, 9.47 3.63 C9.62 3.99, 9.75 4.38, 9.85 4.77 C9.95 5.17, 10.03 5.58, 10.08 5.99 C10.13 6.41, 10.14 7.04, 10.15 7.25 C10.17 7.46, 10.17 7.04, 10.15 7.25" stroke="#1971c2" stroke-width="1" fill="none"></path></g><g stroke-linecap="round" transform="translate(344.37457891087524 271.92163616499465) rotate(0 5.077271263288765 7.253244661841109)"><path d="M10.15 7.25 C10.15 7.67, 10.13 8.1, 10.08 8.51 C10.03 8.93, 9.95 9.34, 9.85 9.73 C9.75 10.13, 9.62 10.52, 9.47 10.88 C9.33 11.24, 9.16 11.59, 8.97 11.92 C8.78 12.24, 8.57 12.54, 8.34 12.81 C8.12 13.08, 7.87 13.32, 7.62 13.53 C7.36 13.74, 7.09 13.93, 6.81 14.07 C6.54 14.21, 6.25 14.32, 5.96 14.4 C5.67 14.47, 5.37 14.51, 5.08 14.51 C4.78 14.51, 4.49 14.47, 4.2 14.4 C3.91 14.32, 3.62 14.21, 3.34 14.07 C3.06 13.93, 2.79 13.74, 2.54 13.53 C2.28 13.32, 2.04 13.08, 1.81 12.81 C1.59 12.54, 1.38 12.24, 1.19 11.92 C1 11.59, 0.83 11.24, 0.68 10.88 C0.53 10.52, 0.41 10.13, 0.31 9.73 C0.21 9.34, 0.13 8.93, 0.08 8.51 C0.03 8.1, 0 7.67, 0 7.25 C0 6.83, 0.03 6.41, 0.08 5.99 C0.13 5.58, 0.21 5.17, 0.31 4.77 C0.41 4.38, 0.53 3.99, 0.68 3.63 C0.83 3.26, 1 2.91, 1.19 2.59 C1.38 2.27, 1.59 1.97, 1.81 1.7 C2.04 1.43, 2.28 1.18, 2.54 0.97 C2.79 0.76, 3.06 0.58, 3.34 0.44 C3.62 0.29, 3.91 0.18, 4.2 0.11 C4.49 0.04, 4.78 0, 5.08 0 C5.37 0, 5.67 0.04, 5.96 0.11 C6.25 0.18, 6.54 0.29, 6.81 0.44 C7.09 0.58, 7.36 0.76, 7.62 0.97 C7.87 1.18, 8.12 1.43, 8.34 1.7 C8.57 1.97, 8.78 2.27, 8.97 2.59 C9.16 2.91, 9.33 3.26, 9.47 3.63 C9.62 3.99, 9.75 4.38, 9.85 4.77 C9.95 5.17, 10.03 5.58, 10.08 5.99 C10.13 6.41, 10.14 7.04, 10.15 7.25 C10.17 7.46, 10.17 7.04, 10.15 7.25" stroke="#1971c2" stroke-width="1" fill="none"></path></g><g stroke-linecap="round" transform="translate(502.49531253901137 416.98652940181705) rotate(0 5.077271263288708 7.253244661841109)"><path d="M10.15 7.25 C10.15 7.67, 10.13 8.1, 10.08 8.51 C10.03 8.93, 9.95 9.34, 9.85 9.73 C9.75 10.13, 9.62 10.52, 9.47 10.88 C9.33 11.24, 9.16 11.59, 8.97 11.92 C8.78 12.24, 8.57 12.54, 8.34 12.81 C8.12 13.08, 7.87 13.32, 7.62 13.53 C7.36 13.74, 7.09 13.93, 6.81 14.07 C6.54 14.21, 6.25 14.32, 5.96 14.4 C5.67 14.47, 5.37 14.51, 5.08 14.51 C4.78 14.51, 4.49 14.47, 4.2 14.4 C3.91 14.32, 3.62 14.21, 3.34 14.07 C3.06 13.93, 2.79 13.74, 2.54 13.53 C2.28 13.32, 2.04 13.08, 1.81 12.81 C1.59 12.54, 1.38 12.24, 1.19 11.92 C1 11.59, 0.83 11.24, 0.68 10.88 C0.53 10.52, 0.41 10.13, 0.31 9.73 C0.21 9.34, 0.13 8.93, 0.08 8.51 C0.03 8.1, 0 7.67, 0 7.25 C0 6.83, 0.03 6.41, 0.08 5.99 C0.13 5.58, 0.21 5.17, 0.31 4.77 C0.41 4.38, 0.53 3.99, 0.68 3.63 C0.83 3.26, 1 2.91, 1.19 2.59 C1.38 2.27, 1.59 1.97, 1.81 1.7 C2.04 1.43, 2.28 1.18, 2.54 0.97 C2.79 0.76, 3.06 0.58, 3.34 0.44 C3.62 0.29, 3.91 0.18, 4.2 0.11 C4.49 0.04, 4.78 0, 5.08 0 C5.37 0, 5.67 0.04, 5.96 0.11 C6.25 0.18, 6.54 0.29, 6.81 0.44 C7.09 0.58, 7.36 0.76, 7.62 0.97 C7.87 1.18, 8.12 1.43, 8.34 1.7 C8.57 1.97, 8.78 2.27, 8.97 2.59 C9.16 2.91, 9.33 3.26, 9.47 3.63 C9.62 3.99, 9.75 4.38, 9.85 4.77 C9.95 5.17, 10.03 5.58, 10.08 5.99 C10.13 6.41, 10.14 7.04, 10.15 7.25 C10.17 7.46, 10.17 7.04, 10.15 7.25" stroke="#1971c2" stroke-width="1" fill="none"></path></g><g stroke-linecap="round" transform="translate(546.7401049762423 457.60469950812717) rotate(0 5.077271263288708 7.253244661841109)"><path d="M10.15 7.25 C10.15 7.67, 10.13 8.1, 10.08 8.51 C10.03 8.93, 9.95 9.34, 9.85 9.73 C9.75 10.13, 9.62 10.52, 9.47 10.88 C9.33 11.24, 9.16 11.59, 8.97 11.92 C8.78 12.24, 8.57 12.54, 8.34 12.81 C8.12 13.08, 7.87 13.32, 7.62 13.53 C7.36 13.74, 7.09 13.93, 6.81 14.07 C6.54 14.21, 6.25 14.32, 5.96 14.4 C5.67 14.47, 5.37 14.51, 5.08 14.51 C4.78 14.51, 4.49 14.47, 4.2 14.4 C3.91 14.32, 3.62 14.21, 3.34 14.07 C3.06 13.93, 2.79 13.74, 2.54 13.53 C2.28 13.32, 2.04 13.08, 1.81 12.81 C1.59 12.54, 1.38 12.24, 1.19 11.92 C1 11.59, 0.83 11.24, 0.68 10.88 C0.53 10.52, 0.41 10.13, 0.31 9.73 C0.21 9.34, 0.13 8.93, 0.08 8.51 C0.03 8.1, 0 7.67, 0 7.25 C0 6.83, 0.03 6.41, 0.08 5.99 C0.13 5.58, 0.21 5.17, 0.31 4.77 C0.41 4.38, 0.53 3.99, 0.68 3.63 C0.83 3.26, 1 2.91, 1.19 2.59 C1.38 2.27, 1.59 1.97, 1.81 1.7 C2.04 1.43, 2.28 1.18, 2.54 0.97 C2.79 0.76, 3.06 0.58, 3.34 0.44 C3.62 0.29, 3.91 0.18, 4.2 0.11 C4.49 0.04, 4.78 0, 5.08 0 C5.37 0, 5.67 0.04, 5.96 0.11 C6.25 0.18, 6.54 0.29, 6.81 0.44 C7.09 0.58, 7.36 0.76, 7.62 0.97 C7.87 1.18, 8.12 1.43, 8.34 1.7 C8.57 1.97, 8.78 2.27, 8.97 2.59 C9.16 2.91, 9.33 3.26, 9.47 3.63 C9.62 3.99, 9.75 4.38, 9.85 4.77 C9.95 5.17, 10.03 5.58, 10.08 5.99 C10.13 6.41, 10.14 7.04, 10.15 7.25 C10.17 7.46, 10.17 7.04, 10.15 7.25" stroke="#1971c2" stroke-width="1" fill="none"></path></g><g stroke-linecap="round"><g transform="translate(315.3616002635107 259.59112023986495) rotate(0 -30.463627579732645 130.19574168004795)"><path d="M0 0 C-10.15 43.4, -50.77 216.99, -60.93 260.39 M0 0 C-10.15 43.4, -50.77 216.99, -60.93 260.39" stroke="#f08c00" stroke-width="1" fill="none"></path></g></g><mask></mask><g stroke-linecap="round"><g transform="translate(348.0012012417957 284.97747655630883) rotate(0 -19.94642282006305 117.13990128873388)"><path d="M0 0 C-6.65 39.05, -33.24 195.23, -39.89 234.28 M0 0 C-6.65 39.05, -33.24 195.23, -39.89 234.28" stroke="#f08c00" stroke-width="1" fill="none"></path></g></g><mask></mask><g stroke-linecap="round"><g transform="translate(384.2674245510012 321.2436998655144) rotate(0 -13.418502624406074 100.82010079959139)"><path d="M0 0 C-4.47 33.61, -22.36 168.03, -26.84 201.64 M0 0 C-4.47 33.61, -22.36 168.03, -26.84 201.64" stroke="#f08c00" stroke-width="1" fill="none"></path></g></g><mask></mask><g stroke-linecap="round"><g transform="translate(435.7654616500731 366.2138167689293) rotate(0 -13.055840391314007 77.6097178816998)"><path d="M0 0 C-4.35 25.87, -21.76 129.35, -26.11 155.22 M0 0 C-4.35 25.87, -21.76 129.35, -26.11 155.22" stroke="#f08c00" stroke-width="1" fill="none"></path></g></g><mask></mask><g stroke-linecap="round"><g transform="translate(473.4823338916468 402.48004007813483) rotate(0 -6.890582428749042 59.11394399400501)"><path d="M0 0 C-2.3 19.7, -11.48 98.52, -13.78 118.23 M0 0 C-2.3 19.7, -11.48 98.52, -13.78 118.23" stroke="#f08c00" stroke-width="1" fill="none"></path></g></g><mask></mask><g stroke-linecap="round"><g transform="translate(507.57258380229996 429.31704532694687) rotate(0 -0.36266223309200996 46.78342806887514)"><path d="M0 0 C-0.12 15.59, -0.6 77.97, -0.73 93.57 M0 0 C-0.12 15.59, -0.6 77.97, -0.73 93.57" stroke="#f08c00" stroke-width="1" fill="none"></path></g></g><mask></mask><g stroke-linecap="round"><g transform="translate(551.0920517733466 469.20989096707297) rotate(0 0.36266223309212364 27.199667481904214)"><path d="M0 0 C0.12 9.07, 0.6 45.33, 0.73 54.4 M0 0 C0.12 9.07, 0.6 45.33, 0.73 54.4" stroke="#f08c00" stroke-width="1" fill="none"></path></g></g><mask></mask><g stroke-linecap="round"><g transform="translate(590.9848974134727 498.94819408062153) rotate(0 3.2639600978285443 12.69317815822194)"><path d="M0 0 C1.09 4.23, 5.44 21.16, 6.53 25.39 M0 0 C1.09 4.23, 5.44 21.16, 6.53 25.39" stroke="#f08c00" stroke-width="1" fill="none"></path></g></g><mask></mask><g stroke-linecap="round"><g transform="translate(609.1180090680755 365.48849230274504) rotate(0 -118.22788798801002 48.234077001243406)"><path d="M0 0 C-39.41 16.08, -197.05 80.39, -236.46 96.47 M0 0 C-39.41 16.08, -197.05 80.39, -236.46 96.47" stroke="#f08c00" stroke-width="1" fill="none"></path></g><g transform="translate(609.1180090680755 365.48849230274504) rotate(0 -118.22788798801002 48.234077001243406)"><path d="M-217.93 79.68 C-223.08 84.34, -228.22 89, -236.46 96.47 M-217.93 79.68 C-224.38 85.52, -230.82 91.36, -236.46 96.47" stroke="#f08c00" stroke-width="1" fill="none"></path></g><g transform="translate(609.1180090680755 365.48849230274504) rotate(0 -118.22788798801002 48.234077001243406)"><path d="M-211.47 95.51 C-218.41 95.78, -225.34 96.04, -236.46 96.47 M-211.47 95.51 C-220.17 95.84, -228.86 96.18, -236.46 96.47" stroke="#f08c00" stroke-width="1" fill="none"></path></g></g><mask></mask><g transform="translate(569.9504878941336 329.2222689935395) rotate(0 62.11666488647461 12.5)"><text x="0" y="0" font-family="Virgil, Segoe UI Emoji" font-size="20px" fill="#f08c00" text-anchor="start" style="white-space: pre;" direction="ltr" dominant-baseline="text-before-edge">Light Strings</text></g><g transform="translate(512.6498550655888 259.59112023986495) rotate(0 80.6500015258789 12.5)"><text x="0" y="0" font-family="Virgil, Segoe UI Emoji" font-size="20px" fill="#1971c2" text-anchor="start" style="white-space: pre;" direction="ltr" dominant-baseline="text-before-edge">Paracord Rigging</text></g><g stroke-linecap="round"><g transform="translate(532.2336156525598 296.5826680152545) rotate(0 -57.300632828544735 19.58376058697104)"><path d="M0 0 C-19.1 6.53, -95.5 32.64, -114.6 39.17 M0 0 C-19.1 6.53, -95.5 32.64, -114.6 39.17" stroke="#1971c2" stroke-width="1" fill="none"></path></g><g transform="translate(532.2336156525598 296.5826680152545) rotate(0 -57.300632828544735 19.58376058697104)"><path d="M-95.14 23.48 C-101.97 28.99, -108.8 34.49, -114.6 39.17 M-95.14 23.48 C-99.54 27.03, -103.95 30.58, -114.6 39.17" stroke="#1971c2" stroke-width="1" fill="none"></path></g><g transform="translate(532.2336156525598 296.5826680152545) rotate(0 -57.300632828544735 19.58376058697104)"><path d="M-89.61 39.66 C-98.38 39.49, -107.15 39.31, -114.6 39.17 M-89.61 39.66 C-95.26 39.55, -100.92 39.44, -114.6 39.17" stroke="#1971c2" stroke-width="1" fill="none"></path></g></g><mask></mask><g stroke-linecap="round"><g transform="translate(536.5855624496644 295.13201908288636) rotate(0 -31.18895204591672 115.68925235636567)"><path d="M0 0 C-10.4 38.56, -51.98 192.82, -62.38 231.38 M0 0 C-10.4 38.56, -51.98 192.82, -62.38 231.38" stroke="#1971c2" stroke-width="1" fill="none"></path></g><g transform="translate(536.5855624496644 295.13201908288636) rotate(0 -31.18895204591672 115.68925235636567)"><path d="M-64.52 206.47 C-63.72 215.78, -62.92 225.09, -62.38 231.38 M-64.52 206.47 C-63.69 216.09, -62.86 225.71, -62.38 231.38" stroke="#1971c2" stroke-width="1" fill="none"></path></g><g transform="translate(536.5855624496644 295.13201908288636) rotate(0 -31.18895204591672 115.68925235636567)"><path d="M-48.01 210.92 C-53.38 218.57, -58.75 226.21, -62.38 231.38 M-48.01 210.92 C-53.56 218.82, -59.11 226.72, -62.38 231.38" stroke="#1971c2" stroke-width="1" fill="none"></path></g></g><mask></mask></svg>